# xmcd CD database file
#
# Track frame offsets:
#	150
#	11746
#	23140
#	36098
#	51985
#	63442
#	76235
#	88511
#	101833
#	115625
#	128561
#	142614
#	156236
#	169331
#	180396
#	197903
#	210028
#	222190
#	238988
#	251174
#	262797
#	278950
#	295297
#
# Disc length: 4132 seconds
#
# Revision: 3
# Processed by: cddbd v1.5.2PL0 Copyright (c) Steve Scherf et al.
# Submitted via: CDex 2.21
#
DISCID=40102217
DTITLE=Nancy Wood - This is my Story
DYEAR=2015
DGENRE=Country
TTITLE0=Fort Worth I Love You
TTITLE1=Lyin' Cheatin' Woman Chasin' Honky Tonkin' Whiskey Drinkin You
TTITLE2=One More Hallelujah For The Road
TTITLE3=Blanket On The Ground
TTITLE4=A Little Love
TTITLE5=Could I Borrow Your Arms For Tonight
TTITLE6=Turn Your Lovelight On
TTITLE7=Waltz Around The Clock
TTITLE8=I Wish That I Could Hurt That Way again
TTITLE9=A Step In The Right Direction
TTITLE10=Somewhere
TTITLE11=We Make Love - A Household Word
TTITLE12=Imagine That
TTITLE13=I've Got Love
TTITLE14=Man Of My Own
TTITLE15=I Know A Good Thing When I Feel it
TTITLE16=I Think I Could Love You Better Than She Did
TTITLE17=Beautiful New York Nights
TTITLE18=Firestarter
TTITLE19=Night After Night
TTITLE20=Tears In Your Eyes
TTITLE21=How Can I Stand Aside
TTITLE22=Could I Have This Dance For The Rest Of My Life
EXTD=YEAR: 2015
EXTT0=
EXTT1=
EXTT2=
EXTT3=
EXTT4=
EXTT5=
EXTT6=
EXTT7=
EXTT8=
EXTT9=
EXTT10=
EXTT11=
EXTT12=
EXTT13=
EXTT14=
EXTT15=
EXTT16=
EXTT17=
EXTT18=
EXTT19=
EXTT20=
EXTT21=
EXTT22=
PLAYORDER=
